<svg xmlns="http://www.w3.org/2000/svg" width="34" height="34" viewBox="0 0 34 34">
  <g id="Group_19" data-name="Group 19" transform="translate(0 -0.427)">
    <rect id="Rectangle_33" data-name="Rectangle 33" width="34" height="34" rx="4" transform="translate(0 0.427)" fill="#74b42c"/>
    <g id="shopping-cart" transform="translate(8 8.885)">
      <path id="Path_1" data-name="Path 1" d="M4.845,2H1V3.6H3.582L5.8,13.777h.01v.259H16.245v-.2L18,6.085l.271-.875H5.538l-.458-2.1Zm11.39,4.814H5.888l1.227,5.617H14.96Z" transform="translate(-1 -2)" fill="#fff" fill-rule="evenodd"/>
      <path id="Path_2" data-name="Path 2" d="M9.6,21.21A1.6,1.6,0,1,0,8,19.6,1.6,1.6,0,0,0,9.6,21.21Zm7.221-1.6a1.6,1.6,0,1,1-1.6-1.6A1.6,1.6,0,0,1,16.826,19.6Z" transform="translate(-2.383 -5.162)" fill="#fff"/>
    </g>
  </g>
</svg>
